<mxfile host="app.diagrams.net" modified="2024-02-07T04:10:34.411Z" agent="Mozilla/5.0 (Macintosh; Intel Mac OS X 10_15_7) AppleWebKit/537.36 (KHTML, like Gecko) Chrome/120.0.0.0 Safari/537.36" etag="Ju6GUI3vVuubPJ4YPryA" version="22.1.21" type="github">
  <diagram name="第 1 页" id="D-MB-KbhiQcWg0wlnCK3">
    <mxGraphModel dx="954" dy="615" grid="1" gridSize="10" guides="1" tooltips="1" connect="1" arrows="1" fold="1" page="1" pageScale="1" pageWidth="827" pageHeight="1169" math="0" shadow="0">
      <root>
        <mxCell id="0" />
        <mxCell id="1" parent="0" />
        <mxCell id="zCLFrVsV8dxzdzppGPiO-1" value="Pool" style="swimlane;childLayout=stackLayout;resizeParent=1;resizeParentMax=0;startSize=20;html=1;" vertex="1" parent="1">
          <mxGeometry x="100.00000000000045" y="130" width="850" height="480" as="geometry" />
        </mxCell>
        <mxCell id="zCLFrVsV8dxzdzppGPiO-2" value="产研" style="swimlane;startSize=20;html=1;" vertex="1" parent="zCLFrVsV8dxzdzppGPiO-1">
          <mxGeometry y="20" width="250" height="460" as="geometry" />
        </mxCell>
        <mxCell id="zCLFrVsV8dxzdzppGPiO-3" value="采购" style="swimlane;startSize=20;html=1;" vertex="1" parent="zCLFrVsV8dxzdzppGPiO-1">
          <mxGeometry x="250" y="20" width="260" height="460" as="geometry" />
        </mxCell>
        <mxCell id="zCLFrVsV8dxzdzppGPiO-4" value="供应商" style="swimlane;startSize=20;html=1;" vertex="1" parent="zCLFrVsV8dxzdzppGPiO-1">
          <mxGeometry x="510" y="20" width="340" height="460" as="geometry" />
        </mxCell>
        <mxCell id="zCLFrVsV8dxzdzppGPiO-6" value="Pool" style="swimlane;childLayout=stackLayout;resizeParent=1;resizeParentMax=0;horizontal=0;startSize=20;horizontalStack=0;html=1;" vertex="1" parent="1">
          <mxGeometry x="100" y="170" width="840" height="350" as="geometry" />
        </mxCell>
        <mxCell id="zCLFrVsV8dxzdzppGPiO-7" value="Lane 1" style="swimlane;startSize=20;horizontal=0;html=1;" vertex="1" parent="zCLFrVsV8dxzdzppGPiO-6">
          <mxGeometry x="20" width="820" height="120" as="geometry" />
        </mxCell>
        <mxCell id="zCLFrVsV8dxzdzppGPiO-11" style="edgeStyle=orthogonalEdgeStyle;rounded=0;orthogonalLoop=1;jettySize=auto;html=1;" edge="1" parent="zCLFrVsV8dxzdzppGPiO-7" source="zCLFrVsV8dxzdzppGPiO-5" target="zCLFrVsV8dxzdzppGPiO-10">
          <mxGeometry relative="1" as="geometry" />
        </mxCell>
        <mxCell id="zCLFrVsV8dxzdzppGPiO-5" value="发起供应商邮件询价" style="rounded=0;whiteSpace=wrap;html=1;" vertex="1" parent="zCLFrVsV8dxzdzppGPiO-7">
          <mxGeometry x="60.000000000000455" y="30" width="115" height="40" as="geometry" />
        </mxCell>
        <mxCell id="zCLFrVsV8dxzdzppGPiO-10" value="邮件回复报价" style="rounded=0;whiteSpace=wrap;html=1;" vertex="1" parent="zCLFrVsV8dxzdzppGPiO-7">
          <mxGeometry x="602.5000000000005" y="30" width="115" height="40" as="geometry" />
        </mxCell>
        <mxCell id="zCLFrVsV8dxzdzppGPiO-12" value="发起指定供应商流程" style="rounded=0;whiteSpace=wrap;html=1;" vertex="1" parent="zCLFrVsV8dxzdzppGPiO-7">
          <mxGeometry x="60.000000000000455" y="80" width="115" height="40" as="geometry" />
        </mxCell>
        <mxCell id="zCLFrVsV8dxzdzppGPiO-8" value="Lane 2" style="swimlane;startSize=20;horizontal=0;html=1;" vertex="1" parent="zCLFrVsV8dxzdzppGPiO-6">
          <mxGeometry x="20" y="120" width="820" height="80" as="geometry" />
        </mxCell>
        <mxCell id="zCLFrVsV8dxzdzppGPiO-9" value="Lane 3" style="swimlane;startSize=20;horizontal=0;html=1;" vertex="1" parent="zCLFrVsV8dxzdzppGPiO-6">
          <mxGeometry x="20" y="200" width="820" height="150" as="geometry" />
        </mxCell>
      </root>
    </mxGraphModel>
  </diagram>
</mxfile>
